#!OML:ASF G:\JayActor3\Patient Classification 1\Patient 1\Session 6\male.ASF
:FULLY-SPECIFIED
:DEGREES
1545
root 8.31658 11.9374 -4.02546 34.1639 -24.1532 9.33818
lowerback 48.0834 -4.20936 6.86659
upperback 12.605 -2.21189 -0.500634
thorax -6.21696 -0.947806 -2.85076
lowerneck -8.74075 -4.10342 0.0650102
upperneck 16.9104 -4.82076 -4.17918
head 6.47003 -2.6094 -1.72511
rclavicle 1.59028e-015 -5.4467e-014
rhumerus -14.7698 -10.491 -76.5894
rradius 136.502
rwrist 21.6238
rhand 4.03065 -24.1789
rfingers 7.12502
rthumb 29.445 -51.8652
lclavicle 1.59028e-015 -5.4467e-014
lhumerus -32.0081 18.3013 73.8865
lradius 137.524
lwrist 5.75557
lhand -2.79708 35.1786
lfingers 7.12502
lthumb 22.9087 63.8377
rfemur -99.0452 -19.9602 17.2551
rtibia 109.396
rfoot -43.1153 -26.7673
rtoes -6.53225
lfemur -109.815 4.51212 -37.9529
ltibia 90.5858
lfoot -15.0807 -7.75106
ltoes 6.59641
1546
root 8.31295 11.9422 -4.02827 34.1907 -24.1085 9.29272
lowerback 48.0096 -4.22104 6.88302
upperback 12.5839 -2.22443 -0.519142
thorax -6.23116 -0.953189 -2.87485
lowerneck -8.74063 -4.09038 0.0737347
upperneck 16.868 -4.80398 -4.19024
head 6.45636 -2.60193 -1.72785
rclavicle -2.06736e-014 -3.23025e-014
rhumerus -14.822 -10.4922 -76.64
rradius 136.451
rwrist 21.6292
rhand 4.04003 -24.1668
rfingers 7.12502
rthumb 29.4539 -51.8516
lclavicle -2.06736e-014 -3.23025e-014
lhumerus -32.0112 18.2455 73.9119
lradius 137.498
lwrist 5.74492
lhand -2.76051 35.1891
lfingers 7.12502
lthumb 22.9438 63.8438
rfemur -99.0034 -19.9053 17.3097
rtibia 109.342
rfoot -43.1537 -26.8173
rtoes -6.53384
lfemur -109.801 4.54231 -37.919
ltibia 90.5327
lfoot -15.058 -7.79682
ltoes 6.622
1547
root 8.30953 11.9468 -4.03094 34.2165 -24.0553 9.25013
lowerback 47.944 -4.2302 6.90591
upperback 12.5621 -2.22908 -0.525611
thorax -6.24581 -0.955463 -2.89196
lowerneck -8.7487 -4.07215 0.0811487
upperneck 16.8319 -4.77967 -4.20237
head 6.44631 -2.59112 -1.7305
rclavicle 2.22639e-014 5.29761e-014
rhumerus -14.8754 -10.4873 -76.6831
rradius 136.391
rwrist 21.634
rhand 4.04158 -24.1506
rfingers 7.12502
rthumb 29.4554 -51.8351
lclavicle 2.22639e-014 5.29761e-014
lhumerus -32.0112 18.1858 73.947
lradius 137.47
lwrist 5.74649
lhand -2.72108 35.1819
lfingers 7.12502
lthumb 22.9816 63.8319
rfemur -98.9601 -19.8581 17.3626
rtibia 109.291
rfoot -43.1888 -26.8653
rtoes -6.54074
lfemur -109.785 4.56343 -37.8848
ltibia 90.4794
lfoot -15.0369 -7.83832
ltoes 6.61703
1548
root 8.30625 11.9514 -4.03352 34.2355 -23.9993 9.21958
lowerback 47.8867 -4.2346 6.92902
upperback 12.5409 -2.22628 -0.52238
thorax -6.25998 -0.954734 -2.90158
lowerneck -8.75949 -4.05213 0.0774806
upperneck 16.7999 -4.75268 -4.20521
head 6.43866 -2.57899 -1.72837
rclavicle 1.11319e-014 1.56046e-014
rhumerus -14.9322 -10.4822 -76.7159
rradius 136.328
rwrist 21.6452
rhand 4.04413 -24.1338
rfingers 7.12502
rthumb 29.4578 -51.8179
lclavicle 1.11319e-014 1.56046e-014
lhumerus -32.0029 18.1233 73.9906
lradius 137.438
lwrist 5.76008
lhand -2.68018 35.1446
lfingers 7.12502
lthumb 23.0209 63.7897
rfemur -98.9174 -19.8248 17.4063
rtibia 109.245
rfoot -43.2154 -26.9092
rtoes -6.54881
lfemur -109.762 4.57607 -37.8588
ltibia 90.4244
lfoot -15.0146 -7.88493
ltoes 6.62897
1549
root 8.30315 11.9556 -4.03596 34.2446 -23.9413 9.20471
lowerback 47.8395 -4.23484 6.94921
upperback 12.5208 -2.21812 -0.510892
thorax -6.27371 -0.951876 -2.90291
lowerneck -8.77695 -4.03051 0.0504309
upperneck 16.7734 -4.72326 -4.18674
head 6.43527 -2.56548 -1.71579
rclavicle -1.59028e-015 1.81888e-014
rhumerus -14.99 -10.4781 -76.7404
rradius 136.266
rwrist 21.6616
rhand 4.04929 -24.1203
rfingers 7.12502
rthumb 29.4628 -51.8036
lclavicle -1.59028e-015 1.81888e-014
lhumerus -31.9854 18.0578 74.0458
lradius 137.408
lwrist 5.77828
lhand -2.64392 35.1106
lfingers 7.12502
lthumb 23.0557 63.7515
rfemur -98.8745 -19.8095 17.4385
rtibia 109.205
rfoot -43.2334 -26.9452
rtoes -6.55976
lfemur -109.73 4.5778 -37.8434
ltibia 90.3671
lfoot -14.9933 -7.9311
ltoes 6.64163
1550
root 8.30013 11.9597 -4.03835 34.2424 -23.885 9.20696
lowerback 47.8031 -4.22849 6.9624
upperback 12.5025 -2.20374 -0.492376
thorax -6.28624 -0.946484 -2.89572
lowerneck -8.79112 -4.00898 0.0141838
upperneck 16.7432 -4.69491 -4.1544
head 6.43067 -2.55188 -1.69723
rclavicle 3.81667e-014 -1.19768e-014
rhumerus -15.0457 -10.4797 -76.7567
rradius 136.212
rwrist 21.6806
rhand 4.07053 -24.1136
rfingers 7.12502
rthumb 29.483 -51.7932
lclavicle 3.81667e-014 -1.19768e-014
lhumerus -31.954 17.989 74.1123
lradius 137.383
lwrist 5.79711
lhand -2.61326 35.0868
lfingers 7.12502
lthumb 23.0851 63.7239
rfemur -98.8322 -19.8104 17.4569
rtibia 109.172
rfoot -43.2486 -26.9732
rtoes -6.56784
lfemur -109.687 4.57078 -37.8397
ltibia 90.3068
lfoot -14.9742 -7.97687
ltoes 6.66045
1551
root 8.29707 11.9634 -4.04077 34.2296 -23.8317 9.22514
lowerback 47.7772 -4.21624 6.96823
upperback 12.4874 -2.1846 -0.469923
thorax -6.29648 -0.939024 -2.88262
lowerneck -8.80007 -3.98935 -0.0280381
upperneck 16.7041 -4.67059 -4.10875
head 6.42276 -2.53941 -1.67347
rclavicle 6.20208e-014 3.10104e-014
rhumerus -15.0928 -10.4875 -76.7704
rradius 136.17
rwrist 21.7007
rhand 4.11992 -24.1144
rfingers 7.12502
rthumb 29.5302 -51.7858
lclavicle 6.20208e-014 3.10104e-014
lhumerus -31.9068 17.9209 74.1848
lradius 137.361
lwrist 5.81582
lhand -2.587 35.0743
lfingers 7.12502
lthumb 23.1103 63.7083
rfemur -98.7907 -19.8243 17.4618
rtibia 109.145
rfoot -43.2638 -26.9914
rtoes -6.56566
lfemur -109.635 4.55765 -37.8492
ltibia 90.2445
lfoot -14.9578 -8.02211
ltoes 6.67959
